HIERARCHY
ROOT joint_Root
{
	OFFSET 0.0 0.0 0.0
	CHANNELS 6 Xposition Yposition Zposition Zrotation Xrotation Yrotation 
	JOINT Hips
	{
		OFFSET 4.5925 91.4895 -427.239
		CHANNELS 6 Xposition Yposition Zposition Zrotation Xrotation Yrotation 
		JOINT Spine
		{
			OFFSET 15.7357 0.0 0.0
			CHANNELS 6 Xposition Yposition Zposition Zrotation Xrotation Yrotation 
			JOINT Chest
			{
				OFFSET 8.98455 -0.406207 0.0
				CHANNELS 6 Xposition Yposition Zposition Zrotation Xrotation Yrotation 
				JOINT Neck
				{
					OFFSET 16.3773 0.0 0.0
					CHANNELS 6 Xposition Yposition Zposition Zrotation Xrotation Yrotation 
					JOINT Head
					{
						OFFSET 6.45672 0.0 0.0
						CHANNELS 6 Xposition Yposition Zposition Zrotation Xrotation Yrotation 
						End Site
						{
							OFFSET 0.0 0.0 0.0
						}
					}
				}
				JOINT Shoulder_L
				{
					OFFSET 12.9942 -0.242716 4.98039
					CHANNELS 6 Xposition Yposition Zposition Zrotation Xrotation Yrotation 
					JOINT UpperArm_L
					{
						OFFSET 5.34809 0.0 0.0
						CHANNELS 6 Xposition Yposition Zposition Zrotation Xrotation Yrotation 
						JOINT LowerArm_L
						{
							OFFSET 24.3286 1.87007e-05 0.0
							CHANNELS 6 Xposition Yposition Zposition Zrotation Xrotation Yrotation 
							JOINT Hand_L
							{
								OFFSET 22.2916 0.0 0.0
								CHANNELS 6 Xposition Yposition Zposition Zrotation Xrotation Yrotation 
								End Site
								{
									OFFSET 0.0 0.0 0.0
								}
							}
						}
					}
				}
				JOINT Shoulder_R
				{
					OFFSET 12.9945 -0.242716 -4.98039
					CHANNELS 6 Xposition Yposition Zposition Zrotation Xrotation Yrotation 
					JOINT UpperArm_R
					{
						OFFSET -5.34813 0.0 0.0
						CHANNELS 6 Xposition Yposition Zposition Zrotation Xrotation Yrotation 
						JOINT LowerArm_R
						{
							OFFSET -24.3289 0.000322201 0.0
							CHANNELS 6 Xposition Yposition Zposition Zrotation Xrotation Yrotation 
							JOINT Hand_R
							{
								OFFSET -22.2915 -0.000108084 0.0
								CHANNELS 6 Xposition Yposition Zposition Zrotation Xrotation Yrotation 
								End Site
								{
									OFFSET 0.0 0.0 0.0
								}
							}
						}
					}
				}
			}
		}
		JOINT UpperLeg_L
		{
			OFFSET -2.19248 -6.46944 0.0
			CHANNELS 6 Xposition Yposition Zposition Zrotation Xrotation Yrotation 
			JOINT LowerLeg_L
			{
				OFFSET 39.0811 0.0 -1.23785e-05
				CHANNELS 6 Xposition Yposition Zposition Zrotation Xrotation Yrotation 
				JOINT Foot_L
				{
					OFFSET 40.9854 0.0 -1.26872e-05
					CHANNELS 6 Xposition Yposition Zposition Zrotation Xrotation Yrotation 
					JOINT Toes_L
					{
						OFFSET 11.7543 0.0 0.0
						CHANNELS 6 Xposition Yposition Zposition Zrotation Xrotation Yrotation 
						End Site
						{
							OFFSET 0.0 0.0 0.0
						}
					}
				}
			}
		}
		JOINT UpperLeg_R
		{
			OFFSET -2.19251 6.46944 0.0
			CHANNELS 6 Xposition Yposition Zposition Zrotation Xrotation Yrotation 
			JOINT LowerLeg_R
			{
				OFFSET -39.0811 -0.00228153 -0.0401928
				CHANNELS 6 Xposition Yposition Zposition Zrotation Xrotation Yrotation 
				JOINT Foot_R
				{
					OFFSET -40.9854 0.0 0.0
					CHANNELS 6 Xposition Yposition Zposition Zrotation Xrotation Yrotation 
					JOINT Toes_R
					{
						OFFSET -11.7543 0.0 0.0
						CHANNELS 6 Xposition Yposition Zposition Zrotation Xrotation Yrotation 
						End Site
						{
							OFFSET 0.0 0.0 0.0
						}
					}
				}
			}
		}
	}
}
MOTION
Frames:	4
Frame Time:	0.0333333
0.000000 0.000000 0.000000 0.000000 0.000000 -0.000000 -1.481680 92.255300 2.719600 88.702400 -0.815444 2.941380 15.735700 0.000005 -0.000001 71.181600 87.942700 -71.227700 8.984550 -0.406207 -0.000000 -3.872450 -1.321720 -0.136915 16.377300 -0.000001 -0.000001 11.079300 -2.650630 1.585350 6.456720 -0.000001 -0.000000 8.048220 -1.922950 1.756860 12.994200 -0.242716 4.980390 -82.506800 -13.369900 -60.367900 5.348090 -0.000007 -0.000001 -72.237400 -61.981300 -117.407000 24.328600 0.000019 0.000005 10.275400 8.298820 -51.474000 22.291600 -0.000001 0.000005 15.966400 5.401990 -3.002280 12.994500 -0.242716 -4.980390 95.458800 -12.269700 -65.787500 -5.348130 -0.000001 -0.000004 -54.385300 -64.610800 -101.686000 -24.328900 0.000322 -0.000009 -1.764410 -1.479230 -50.017200 -22.291500 -0.000108 -0.000004 20.162400 5.522140 -7.453380 -2.192480 -6.469440 -0.000000 -173.947000 -13.354500 -0.526763 39.081100 -0.000007 -0.000012 -0.110981 0.297233 20.474700 40.985400 -0.000006 -0.000013 -0.382469 9.487270 -66.725100 11.754300 -0.000000 0.000003 -0.000165 -0.001577 -16.637400 -2.192510 6.469440 -0.000001 176.076000 26.809900 -178.580000 -39.081100 -0.002282 -0.040193 0.003897 -0.001636 19.342100 -40.985400 0.000008 0.000006 6.737680 18.050400 -68.326100 -11.754300 -0.000006 -0.000006 -0.021181 -0.031836 -16.857600
0.000000 0.000000 0.000000 0.000000 0.000000 -0.000000 -1.414730 92.287500 2.636170 88.728700 -0.760120 2.905380 15.735700 0.000005 -0.000001 71.612800 87.892700 -71.653200 8.984550 -0.406207 -0.000000 -3.767600 -1.324570 -0.124451 16.377300 -0.000001 -0.000001 11.059900 -2.709970 1.514490 6.456720 -0.000001 -0.000000 7.924640 -1.975940 1.745470 12.994200 -0.242716 4.980390 -82.607200 -13.143800 -60.291400 5.348090 -0.000007 -0.000001 -71.392600 -62.242600 -116.457000 24.328600 0.000019 0.000005 10.379300 8.287220 -51.799400 22.291600 -0.000001 0.000005 16.011000 5.399200 -2.911570 12.994500 -0.242716 -4.980390 95.435500 -12.181100 -65.726700 -5.348130 -0.000001 -0.000004 -53.128400 -64.902700 -100.523000 -24.328900 0.000322 -0.000009 -1.811150 -1.524750 -49.900900 -22.291500 -0.000108 -0.000004 19.994600 5.520210 -7.370780 -2.192480 -6.469440 -0.000000 -174.030000 -13.404700 -0.550579 39.081100 -0.000007 -0.000012 -0.107718 0.291158 20.302700 40.985400 -0.000006 -0.000013 -0.329343 9.584620 -66.580300 11.754300 -0.000000 0.000003 -0.000186 -0.001744 -16.643500 -2.192510 6.469440 -0.000001 176.071000 26.775800 -178.619000 -39.081100 -0.002282 -0.040193 0.003867 -0.001562 19.190300 -40.985400 0.000008 0.000006 6.652320 17.999700 -68.149300 -11.754300 -0.000006 -0.000006 -0.099682 -0.125132 -16.803600
0.000000 0.000000 0.000000 0.000000 0.000000 -0.000000 -1.346640 92.297900 2.566520 88.750700 -0.762797 2.948190 15.735700 0.000005 -0.000001 72.803500 87.822100 -72.843900 8.984550 -0.406207 -0.000000 -3.605930 -1.283050 -0.121127 16.377300 -0.000001 -0.000001 10.883200 -2.698430 1.483600 6.456720 -0.000001 -0.000000 7.878030 -1.947450 1.684230 12.994200 -0.242716 4.980390 -82.770000 -12.809900 -60.222800 5.348090 -0.000007 -0.000001 -69.972800 -62.306600 -114.628000 24.328600 0.000019 0.000005 10.434900 8.013490 -52.875300 22.291600 -0.000001 0.000005 16.128600 5.391960 -2.678110 12.994500 -0.242716 -4.980390 95.325300 -11.948700 -65.761600 -5.348130 -0.000001 -0.000004 -51.686800 -64.885400 -98.845200 -24.328900 0.000322 -0.000009 -1.975360 -1.632700 -50.422900 -22.291500 -0.000108 -0.000004 20.018100 5.515080 -7.153480 -2.192480 -6.469440 -0.000000 -174.075000 -13.580400 -0.522406 39.081100 -0.000007 -0.000012 -0.109195 0.295652 20.271000 40.985400 -0.000006 -0.000013 -0.255770 9.703490 -66.536800 11.754300 -0.000000 0.000003 -0.000171 -0.001623 -16.639100 -2.192510 6.469440 -0.000001 175.998000 26.786600 -178.600000 -39.081100 -0.002282 -0.040193 0.004404 -0.003113 19.152100 -40.985400 0.000008 0.000006 6.679620 18.007100 -68.126600 -11.754300 -0.000006 -0.000006 -0.022785 -0.033131 -16.828800
0.000000 0.000000 0.000000 0.000000 0.000000 -0.000000 -1.287630 92.328300 2.456510 88.779500 -0.751001 2.920530 15.735700 0.000005 -0.000001 73.136400 87.761700 -73.184200 8.984550 -0.406207 -0.000000 -3.482850 -1.293290 -0.134879 16.377300 -0.000001 -0.000001 10.729300 -2.739890 1.407890 6.456720 -0.000001 -0.000000 7.629580 -1.996940 1.705820 12.994200 -0.242716 4.980390 -82.992300 -12.419800 -60.250700 5.348090 -0.000007 -0.000001 -67.739800 -62.281600 -111.232000 24.328600 0.000019 0.000005 10.370200 7.277880 -55.306400 22.291600 -0.000001 0.000005 16.274900 5.387550 -2.537030 12.994500 -0.242716 -4.980390 95.199500 -11.692200 -65.818200 -5.348130 -0.000001 -0.000004 -50.232000 -64.238800 -96.355300 -24.328900 0.000322 -0.000009 -2.330100 -1.814360 -52.098800 -22.291500 -0.000108 -0.000004 20.355700 5.510210 -6.950390 -2.192480 -6.469440 -0.000000 -174.159000 -13.704500 -0.577451 39.081100 -0.000007 -0.000012 -0.104997 0.286311 20.139300 40.985400 -0.000006 -0.000013 -0.188396 9.840620 -66.389200 11.754300 -0.000000 0.000003 -0.000189 -0.001763 -16.644200 -2.192510 6.469440 -0.000001 175.972000 26.840000 -178.619000 -39.081100 -0.002282 -0.040193 0.004115 -0.002304 18.956300 -40.985400 0.000008 0.000006 6.578250 18.104100 -67.969500 -11.754300 -0.000006 -0.000006 -0.077404 -0.096972 -16.736500
